# xmcd
#
# Track frame offsets:
# 183
# 18990
# 36413
# 54843
# 72243
# 89880
# 109608
# 128888
# 146485
# 164900
# 184315
# 202993
# 220943
# 239485
#
# Disc length: 3428 seconds
#
# Revision: 0
# Processed by: cddbd v1.5.2PL0 Copyright (c) Steve Scherf et al.
# Submitted via: Audion 3.0.2 (http://www.panic.com/audion/)
#
DISCID=d50d620e
DTITLE=Peter Broggs - Reggae In Blues
DYEAR=1900
DGENRE=
TTITLE0=Slave Child
TTITLE1=Reggae In Blues
TTITLE2=Save The Children
TTITLE3=Rules Of The Universe
TTITLE4=One People
TTITLE5=No Pollution
TTITLE6=Natty Me Love Him Culture
TTITLE7=No Mercy In The City
TTITLE8=Try Again
TTITLE9=Sunshine Girl
TTITLE10=Dub In Blues
TTITLE11=Save The Dub
TTITLE12=One People Dub
TTITLE13=Natty Dub
EXTD=
EXTT0=
EXTT1=
EXTT2=
EXTT3=
EXTT4=
EXTT5=
EXTT6=
EXTT7=
EXTT8=
EXTT9=
EXTT10=
EXTT11=
EXTT12=
EXTT13=
PLAYORDER=
